<?xml version="1.0" encoding="UTF-8"?>
<svg xmlns="http://www.w3.org/2000/svg" xmlns:xlink="http://www.w3.org/1999/xlink" width="27pt" height="27pt" viewBox="0 0 27 27" version="1.1">
<g id="surface1">
<path style=" stroke:none;fill-rule:nonzero;fill:rgb(0%,0%,0%);fill-opacity:1;" d="M 25.164062 7.046875 C 23.957031 4.980469 22.320312 3.34375 20.253906 2.136719 C 18.1875 0.933594 15.933594 0.328125 13.484375 0.328125 C 11.039062 0.328125 8.78125 0.933594 6.714844 2.136719 C 4.652344 3.34375 3.015625 4.980469 1.808594 7.046875 C 0.601562 9.113281 0 11.371094 0 13.816406 C 0 16.753906 0.855469 19.398438 2.574219 21.742188 C 4.289062 24.089844 6.503906 25.714844 9.21875 26.617188 C 9.535156 26.675781 9.769531 26.632812 9.921875 26.492188 C 10.074219 26.351562 10.148438 26.175781 10.148438 25.96875 C 10.148438 25.933594 10.144531 25.617188 10.140625 25.019531 C 10.132812 24.421875 10.132812 23.902344 10.132812 23.457031 L 9.726562 23.527344 C 9.46875 23.574219 9.144531 23.59375 8.753906 23.585938 C 8.359375 23.582031 7.953125 23.542969 7.53125 23.464844 C 7.109375 23.390625 6.71875 23.214844 6.355469 22.9375 C 5.992188 22.664062 5.734375 22.304688 5.582031 21.859375 L 5.40625 21.453125 C 5.292969 21.183594 5.105469 20.886719 4.855469 20.558594 C 4.601562 20.230469 4.347656 20.007812 4.089844 19.890625 L 3.96875 19.804688 C 3.886719 19.746094 3.808594 19.675781 3.738281 19.59375 C 3.667969 19.511719 3.617188 19.429688 3.582031 19.347656 C 3.546875 19.265625 3.574219 19.199219 3.667969 19.144531 C 3.765625 19.09375 3.933594 19.066406 4.179688 19.066406 L 4.53125 19.117188 C 4.765625 19.164062 5.054688 19.304688 5.398438 19.539062 C 5.746094 19.773438 6.027344 20.078125 6.25 20.453125 C 6.519531 20.933594 6.84375 21.300781 7.226562 21.550781 C 7.605469 21.800781 7.988281 21.929688 8.375 21.929688 C 8.761719 21.929688 9.09375 21.898438 9.375 21.839844 C 9.65625 21.78125 9.921875 21.695312 10.167969 21.578125 C 10.273438 20.792969 10.558594 20.191406 11.027344 19.769531 C 10.359375 19.699219 9.761719 19.59375 9.226562 19.453125 C 8.695312 19.3125 8.144531 19.082031 7.578125 18.765625 C 7.007812 18.449219 6.539062 18.058594 6.164062 17.589844 C 5.789062 17.121094 5.480469 16.507812 5.242188 15.746094 C 5 14.984375 4.882812 14.109375 4.882812 13.113281 C 4.882812 11.695312 5.34375 10.492188 6.269531 9.496094 C 5.835938 8.429688 5.875 7.234375 6.390625 5.914062 C 6.730469 5.808594 7.234375 5.886719 7.902344 6.152344 C 8.570312 6.414062 9.058594 6.640625 9.367188 6.828125 C 9.679688 7.011719 9.925781 7.171875 10.113281 7.300781 C 11.203125 6.996094 12.328125 6.84375 13.484375 6.84375 C 14.644531 6.84375 15.769531 6.996094 16.859375 7.300781 L 17.523438 6.878906 C 17.980469 6.597656 18.519531 6.339844 19.140625 6.105469 C 19.761719 5.871094 20.234375 5.808594 20.5625 5.914062 C 21.089844 7.238281 21.136719 8.429688 20.703125 9.496094 C 21.628906 10.492188 22.089844 11.695312 22.089844 13.113281 C 22.089844 14.109375 21.96875 14.988281 21.730469 15.753906 C 21.492188 16.523438 21.179688 17.136719 20.800781 17.597656 C 20.417969 18.0625 19.945312 18.453125 19.378906 18.765625 C 18.808594 19.082031 18.257812 19.3125 17.726562 19.453125 C 17.195312 19.59375 16.59375 19.699219 15.925781 19.769531 C 16.535156 20.296875 16.839844 21.125 16.839844 22.261719 L 16.839844 25.964844 C 16.839844 26.175781 16.914062 26.351562 17.058594 26.492188 C 17.207031 26.632812 17.4375 26.675781 17.753906 26.617188 C 20.46875 25.714844 22.683594 24.089844 24.398438 21.742188 C 26.113281 19.394531 26.972656 16.753906 26.972656 13.816406 C 26.972656 11.367188 26.367188 9.113281 25.164062 7.046875 Z M 25.164062 7.046875 "/>
</g>
</svg>
